<svg width="118" height="114" viewBox="0 0 118 114" fill="none" xmlns="http://www.w3.org/2000/svg">
<path d="M58.0105 27.3489L20.3993 63.6852L38.2147 80.8967L75.826 44.5604L58.0105 27.3489Z" fill="#FFD5C5"/>
<path d="M38.8239 45.885L33.2926 51.2288L39.2848 57.016L42.8174 60.4289C43.5092 61.0968 44.0566 61.891 44.4277 62.7652C44.7988 63.6395 44.9862 64.5763 44.979 65.5211C44.9717 66.466 44.7701 67.4 44.3857 68.2689C44.0013 69.1377 43.4419 69.924 42.74 70.582L33.866 78.9094L37.1608 81.6703L51.2415 68.3216L56.7728 62.7249L38.8239 45.885Z" fill="#F4A490"/>
<path d="M46.0348 19.8431C45.6128 20.1837 45.2689 20.6054 45.0249 21.0814C44.7809 21.5575 44.6421 22.0773 44.6175 22.608C44.5929 23.1387 44.6829 23.6685 44.8818 24.1637C45.0807 24.6589 45.3842 25.1087 45.7729 25.4843L43.1714 22.9781C42.4661 22.2605 41.511 21.8202 40.4899 21.7419C39.4688 21.6636 38.4538 21.9529 37.6402 22.5542C37.2181 22.8947 36.8741 23.3165 36.6301 23.7926C36.3861 24.2687 36.2474 24.7887 36.223 25.3194C36.1985 25.8502 36.2888 26.38 36.488 26.8752C36.6873 27.3703 36.9911 27.82 37.3802 28.1954L40.179 30.8993C39.7901 30.5238 39.3246 30.2306 38.812 30.0384C38.2994 29.8462 37.751 29.7593 37.2017 29.7831C36.6525 29.8069 36.1143 29.9409 35.6216 30.1766C35.1289 30.4124 34.6924 30.7446 34.3398 31.1523C33.7175 31.9383 33.418 32.9189 33.4991 33.9054C33.5801 34.8919 34.0358 35.8146 34.7787 36.496L37.3747 39.0094C36.9858 38.6338 36.5202 38.3406 36.0077 38.1485C35.4951 37.9563 34.9467 37.8693 34.3974 37.8931C33.8481 37.9169 33.31 38.0509 32.8173 38.2866C32.3245 38.5224 31.888 38.8547 31.5355 39.2623C30.9132 40.0483 30.6137 41.0289 30.6947 42.0154C30.7757 43.0019 31.2315 43.9247 31.9743 44.6061L35.9734 48.4696L42.9797 55.2383L53.3268 65.2329C55.5335 67.3646 58.4875 68.6193 61.6052 68.7491C64.8226 68.8809 68.4584 69.0341 68.4713 69.0484L81.7463 81.8734C81.7522 81.8792 81.7592 81.8839 81.767 81.8871C81.7747 81.8903 81.7831 81.8919 81.7915 81.8919C81.8 81.8919 81.8083 81.8903 81.8161 81.8871C81.8238 81.8839 81.8308 81.8792 81.8367 81.8734L98.5374 65.7281C98.5435 65.7225 98.5483 65.7157 98.5516 65.7082C98.5549 65.7007 98.5566 65.6926 98.5566 65.6845C98.5566 65.6763 98.5549 65.6683 98.5516 65.6608C98.5483 65.6533 98.5435 65.6465 98.5374 65.6408L65.3683 33.5962L57.5858 26.0775L51.5697 20.2671C50.864 19.5488 49.9082 19.1081 48.8864 19.0298C47.8645 18.9516 46.8488 19.2413 46.0348 19.8431Z" fill="#FFD5C5"/>
<path d="M46.0348 19.8431C45.6128 20.1837 45.2689 20.6054 45.0249 21.0814C44.7809 21.5575 44.6421 22.0773 44.6175 22.608C44.5929 23.1387 44.6829 23.6685 44.8818 24.1637C45.0807 24.6589 45.3842 25.1087 45.7729 25.4843L43.1714 22.9781C42.4661 22.2605 41.511 21.8202 40.4899 21.7419C39.4688 21.6636 38.4538 21.9529 37.6402 22.5542C37.2181 22.8947 36.8741 23.3165 36.6301 23.7926C36.3861 24.2687 36.2474 24.7887 36.223 25.3194C36.1985 25.8502 36.2888 26.38 36.488 26.8752C36.6873 27.3703 36.9911 27.82 37.3802 28.1954L40.179 30.8993C39.7901 30.5238 39.3246 30.2306 38.812 30.0384C38.2994 29.8462 37.751 29.7593 37.2017 29.7831C36.6525 29.8069 36.1143 29.9409 35.6216 30.1766C35.1289 30.4124 34.6924 30.7446 34.3398 31.1523C33.7175 31.9383 33.418 32.9189 33.4991 33.9054C33.5801 34.8919 34.0358 35.8146 34.7787 36.496L37.3747 39.0094C36.9858 38.6338 36.5202 38.3406 36.0077 38.1485C35.4951 37.9563 34.9467 37.8693 34.3974 37.8931C33.8481 37.9169 33.31 38.0509 32.8173 38.2866C32.3245 38.5224 31.888 38.8547 31.5355 39.2623C30.9132 40.0483 30.6137 41.0289 30.6947 42.0154C30.7757 43.0019 31.2315 43.9247 31.9743 44.6061L35.9734 48.4696L42.9797 55.2383L53.3268 65.2329C55.5335 67.3646 58.4875 68.6193 61.6052 68.7491C64.8226 68.8809 68.4584 69.0341 68.4713 69.0484L81.7463 81.8734C81.7522 81.8792 81.7592 81.8839 81.767 81.8871C81.7747 81.8903 81.7831 81.8919 81.7915 81.8919C81.8 81.8919 81.8083 81.8903 81.8161 81.8871C81.8238 81.8839 81.8308 81.8792 81.8367 81.8734L98.5374 65.7281C98.5435 65.7225 98.5483 65.7157 98.5516 65.7082C98.5549 65.7007 98.5566 65.6926 98.5566 65.6845C98.5566 65.6763 98.5549 65.6683 98.5516 65.6608C98.5483 65.6533 98.5435 65.6465 98.5374 65.6408L65.3683 33.5962L57.5858 26.0775L51.5697 20.2671C50.864 19.5488 49.9082 19.1081 48.8864 19.0298C47.8645 18.9516 46.8488 19.2413 46.0348 19.8431Z" fill="#FFD5C5"/>
<path d="M82.753 77.4167C82.7472 77.4226 82.7402 77.4272 82.7324 77.4304C82.7247 77.4336 82.7163 77.4353 82.7079 77.4353C82.6994 77.4353 82.6911 77.4336 82.6833 77.4304C82.6756 77.4272 82.6685 77.4226 82.6627 77.4167L70.3907 65.5607C69.7413 64.9329 68.8727 64.562 67.9551 64.5204C66.5981 64.4617 64.4815 64.3726 62.5197 64.2924C59.402 64.1626 56.448 62.9079 54.2413 60.7762L43.8942 50.7817L32.8944 40.1565C32.507 39.7788 32.1945 39.3356 31.9725 38.8491C31.8143 38.9751 31.6664 39.1127 31.53 39.2605C30.9078 40.0465 30.6083 41.0269 30.6889 42.0133C30.7696 42.9997 31.2248 43.9224 31.9669 44.6043L42.9668 55.2294L53.3139 65.224C55.5206 67.3557 58.4746 68.6104 61.5923 68.7402C64.8078 68.872 68.4455 69.0252 68.4584 69.0395L81.7334 81.8645C81.7393 81.8703 81.7463 81.875 81.7541 81.8782C81.7618 81.8814 81.7702 81.883 81.7786 81.883C81.787 81.883 81.7954 81.8814 81.8032 81.8782C81.8109 81.875 81.8179 81.8703 81.8238 81.8645L98.5374 65.7281C98.5435 65.7225 98.5483 65.7157 98.5516 65.7082C98.5549 65.7007 98.5566 65.6926 98.5566 65.6845C98.5566 65.6763 98.5549 65.6683 98.5516 65.6608C98.5483 65.6533 98.5435 65.6465 98.5374 65.6408L96.7397 63.9041L82.753 77.4167Z" fill="#F4A490"/>
<path d="M72.5227 23.6271L60.8204 34.9327C59.3804 36.3239 59.3803 38.5796 60.8204 39.9708L61.205 40.3424C62.6451 41.7336 64.9799 41.7336 66.4199 40.3424L78.1222 29.0368C79.5622 27.6456 79.5622 25.3899 78.1222 23.9987L77.7376 23.6271C76.2975 22.2359 73.9627 22.2359 72.5227 23.6271Z" fill="#FFD5C5"/>
<path d="M77.963 23.8438L66.4174 34.998C65.7259 35.6659 64.7881 36.041 63.8103 36.041C62.8325 36.041 61.8948 35.6659 61.2033 34.998L60.9765 34.7789L60.8198 34.9321C60.4772 35.2629 60.2054 35.6557 60.02 36.088C59.8346 36.5203 59.7392 36.9837 59.7392 37.4517C59.7392 37.9196 59.8346 38.383 60.02 38.8153C60.2054 39.2476 60.4772 39.6404 60.8198 39.9713L61.2033 40.3418C61.8948 41.0096 62.8325 41.3848 63.8103 41.3848C64.7881 41.3848 65.7259 41.0096 66.4174 40.3418L78.1215 29.0344C78.4641 28.7035 78.7358 28.3108 78.9213 27.8784C79.1067 27.4461 79.2021 26.9828 79.2021 26.5148C79.2021 26.0468 79.1067 25.5835 78.9213 25.1512C78.7358 24.7188 78.4641 24.326 78.1215 23.9952L77.963 23.8438Z" fill="#F4A490"/>
<path d="M78.1157 29.0405L63.7343 42.9344C62.2942 44.3257 62.2942 46.5813 63.7343 47.9726L64.1189 48.3441C65.5589 49.7354 67.8937 49.7354 69.3338 48.3441L83.7152 34.4502C85.1552 33.059 85.1552 30.8033 83.7152 29.4121L83.3306 29.0405C81.8905 27.6493 79.5557 27.6493 78.1157 29.0405Z" fill="#FFD5C5"/>
<path d="M83.5569 29.257L69.325 42.9994C68.6335 43.6672 67.6957 44.0424 66.7179 44.0424C65.7401 44.0424 64.8024 43.6672 64.1109 42.9994L63.8841 42.7803L63.7255 42.9335C63.383 43.2643 63.1112 43.6571 62.9258 44.0894C62.7404 44.5217 62.645 44.9851 62.645 45.453C62.645 45.921 62.7404 46.3844 62.9258 46.8167C63.1112 47.249 63.383 47.6418 63.7255 47.9726L64.1109 48.3431C64.8024 49.011 65.7401 49.3862 66.7179 49.3862C67.6957 49.3862 68.6335 49.011 69.325 48.3431L83.7062 34.4494C84.0488 34.1185 84.3206 33.7257 84.506 33.2934C84.6914 32.8611 84.7868 32.3977 84.7868 31.9298C84.7868 31.4618 84.6914 30.9985 84.506 30.5661C84.3206 30.1338 84.0488 29.741 83.7062 29.4102L83.5569 29.257Z" fill="#F4A490"/>
<path d="M83.7461 34.4228L72.0439 45.7283C70.6038 47.1196 70.6038 49.3752 72.0439 50.7665L72.4285 51.138C73.8685 52.5293 76.2033 52.5293 77.6434 51.138L89.3456 39.8325C90.7857 38.4412 90.7857 36.1856 89.3456 34.7943L88.961 34.4228C87.521 33.0315 85.1862 33.0315 83.7461 34.4228Z" fill="#FFD5C5"/>
<path d="M89.1877 34.6382L77.6422 45.7924C76.9507 46.4602 76.0129 46.8354 75.0351 46.8354C74.0573 46.8354 73.1196 46.4602 72.428 45.7924L72.2013 45.5733L72.0427 45.7265C71.7001 46.0573 71.4284 46.4501 71.243 46.8824C71.0576 47.3147 70.9621 47.7781 70.9621 48.246C70.9621 48.714 71.0576 49.1774 71.243 49.6097C71.4284 50.042 71.7001 50.4348 72.0427 50.7656L72.428 51.1361C73.1196 51.804 74.0573 52.1792 75.0351 52.1792C76.0129 52.1792 76.9507 51.804 77.6422 51.1361L89.3444 39.8305C89.687 39.4997 89.9588 39.1069 90.1442 38.6746C90.3296 38.2423 90.425 37.7789 90.425 37.311C90.425 36.843 90.3296 36.3796 90.1442 35.9473C89.9588 35.515 89.687 35.1222 89.3444 34.7914L89.1877 34.6382Z" fill="#F4A490"/>
<path d="M87.5006 41.6105L78.5714 50.2371C77.1314 51.6283 77.1314 53.884 78.5714 55.2752L78.956 55.6468C80.3961 57.038 82.7309 57.038 84.1709 55.6468L93.1002 47.0202C94.5402 45.629 94.5402 43.3733 93.1002 41.9821L92.7156 41.6105C91.2755 40.2193 88.9407 40.2193 87.5006 41.6105Z" fill="#FFD5C5"/>
<path d="M92.9416 41.8291L84.1709 50.3025C83.4794 50.9704 82.5416 51.3456 81.5638 51.3456C80.586 51.3456 79.6483 50.9704 78.9568 50.3025L78.73 50.0852L78.5733 50.2366C78.2307 50.5674 77.9589 50.9602 77.7735 51.3925C77.5881 51.8249 77.4927 52.2882 77.4927 52.7562C77.4927 53.2241 77.5881 53.6875 77.7735 54.1198C77.9589 54.5521 78.2307 54.9449 78.5733 55.2758L78.9568 55.6463C79.6483 56.3141 80.586 56.6893 81.5638 56.6893C82.5416 56.6893 83.4794 56.3141 84.1709 55.6463L93.1094 47.025C93.8007 46.3569 94.189 45.451 94.189 44.5063C94.189 43.5617 93.8007 42.6557 93.1094 41.9876L92.9416 41.8291Z" fill="#F4A490"/>
<path d="M57.5858 26.0793L61.6144 29.9713H66.2035C66.7624 29.9826 67.3179 29.8861 67.8376 29.6873C68.3574 29.4885 68.8308 29.1915 69.2301 28.8136C69.6295 28.4358 69.9468 27.9848 70.1634 27.4869C70.38 26.9891 70.4916 26.4545 70.4916 25.9145C70.4916 25.3745 70.38 24.8399 70.1634 24.3421C69.9468 23.8443 69.6295 23.3932 69.2301 23.0154C68.8308 22.6376 68.3574 22.3406 67.8376 22.1418C67.3179 21.943 66.7624 21.8464 66.2035 21.8577H53.2162L57.5858 26.0793Z" fill="#FFD5C5"/>
<path d="M66.6682 21.9094C66.6936 22.0585 66.7096 22.209 66.7161 22.36C66.7156 23.4359 66.2729 24.4675 65.4853 25.2281C64.6977 25.9887 63.6296 26.4159 62.516 26.4159H57.9269L61.6144 29.9784H66.2035C67.2743 29.9785 68.3044 29.5825 69.0824 28.8716C69.8603 28.1608 70.3269 27.1891 70.3864 26.1562C70.4459 25.1234 70.0937 24.1077 69.4022 23.3179C68.7107 22.528 67.7323 22.024 66.6682 21.9094Z" fill="#F4A490"/>
<path d="M100.062 60.2868L76.2664 83.2758L88.674 95.2628L112.47 72.2738L100.062 60.2868Z" fill="#545A6D"/>
<path d="M81.7961 77.9297L76.2649 83.2734L88.6733 95.2612L112.469 72.2724L108.781 68.7099L99.2362 77.9297C96.9234 80.1638 93.7867 81.4188 90.5162 81.4188C87.2456 81.4188 84.1089 80.1638 81.7961 77.9297Z" fill="#44394A"/>
<path d="M17.9385 60.2856L5.53091 72.2726L29.3266 95.2616L41.7341 83.2746L17.9385 60.2856Z" fill="#545A6D"/>
<path d="M23.4691 65.6284L17.9378 60.2846L5.53125 72.2724L29.3267 95.2613L34.8579 89.9175L23.4691 78.9094C21.6478 77.1473 20.6249 74.759 20.6249 72.2689C20.6249 69.7788 21.6478 67.3904 23.4691 65.6284Z" fill="#44394A"/>
<path d="M45.6015 44.4475C45.954 44.1063 46.1537 43.6449 46.1575 43.1628C46.1613 42.6807 45.9689 42.2164 45.6217 41.8701L34.609 30.8904H34.5795C33.8375 31.659 33.4412 32.6805 33.4774 33.731C33.5137 34.7815 33.9797 35.7752 34.7731 36.4942L37.3746 39.0094C37.225 38.8723 37.064 38.7472 36.8934 38.6353L42.9114 44.4493C43.0881 44.62 43.2979 44.7553 43.5287 44.8476C43.7596 44.9399 44.007 44.9873 44.2568 44.9872C44.5067 44.987 44.754 44.9392 44.9847 44.8466C45.2155 44.7541 45.425 44.6184 45.6015 44.4475ZM37.087 23.0992C36.4778 23.8332 36.1703 24.7584 36.2234 25.6978C36.2765 26.6371 36.6864 27.5246 37.3746 28.1901L40.1735 30.894C39.9116 30.6411 48.5754 39.232 48.5754 39.232C48.9172 39.5617 49.3773 39.7513 49.8601 39.7616C50.3429 39.7719 50.8113 39.602 51.1677 39.2872C51.3529 39.1244 51.5024 38.9273 51.6074 38.7077C51.7124 38.4881 51.7707 38.2503 51.779 38.0086C51.7872 37.7668 51.7452 37.5258 51.6554 37.3C51.5657 37.0742 51.4299 36.868 51.2562 36.6937L37.8135 23.2987L37.087 23.0992ZM45.7729 25.4843L53.9997 33.6389C54.3483 33.9754 54.8191 34.1673 55.3118 34.1736C55.8046 34.1799 56.2804 34.0002 56.6381 33.6727C56.8195 33.5065 56.965 33.3072 57.0662 33.0862C57.1673 32.8653 57.2222 32.6272 57.2275 32.3857C57.2328 32.1442 57.1885 31.9041 57.0971 31.6792C57.0058 31.4544 56.8692 31.2492 56.6953 31.0757L45.725 20.1459C45.0074 20.8644 44.6104 21.8263 44.6194 22.8246C44.6283 23.823 45.0426 24.778 45.7729 25.4843Z" fill="#F4A490"/>
<path d="M96.6125 77.8976C96.8547 77.8983 97.0947 77.8525 97.3184 77.7629C97.5422 77.6733 97.7453 77.5417 97.916 77.3757L107.835 67.7926L105.228 65.2739L95.309 74.8571C95.0512 75.1062 94.8757 75.4235 94.8046 75.769C94.7335 76.1145 94.77 76.4726 94.9095 76.798C95.049 77.1234 95.2852 77.4016 95.5884 77.5973C95.8915 77.7931 96.2479 77.8976 96.6125 77.8976ZM12.7735 65.2739L10.1664 67.7926L20.0858 77.3757C20.4336 77.7002 20.8993 77.8797 21.3827 77.8757C21.8661 77.8716 22.3286 77.6843 22.6704 77.354C23.0123 77.0238 23.2062 76.577 23.2104 76.11C23.2146 75.6429 23.0287 75.193 22.6929 74.8571L12.7735 65.2739ZM25.3479 78.0295C24.9561 78.0291 24.573 78.141 24.2471 78.3511C23.9211 78.5612 23.667 78.86 23.5169 79.2096C23.3668 79.5592 23.3275 79.944 23.4038 80.3153C23.4802 80.6866 23.6688 81.0276 23.9458 81.2953C24.2229 81.5629 24.5759 81.7451 24.9602 81.8189C25.3445 81.8927 25.7428 81.8546 26.1047 81.7096C26.4666 81.5646 26.7758 81.3191 26.9933 81.0042C27.2107 80.6894 27.3266 80.3193 27.3262 79.9407C27.3262 79.4338 27.1178 78.9477 26.7468 78.5893C26.3758 78.2308 25.8726 78.0295 25.3479 78.0295ZM92.6521 78.0295C92.2604 78.0295 91.8775 78.1417 91.5518 78.352C91.2261 78.5623 90.9723 78.8612 90.8225 79.2108C90.6727 79.5605 90.6336 79.9452 90.7101 80.3164C90.7867 80.6875 90.9755 81.0284 91.2526 81.2959C91.5297 81.5634 91.8827 81.7454 92.2669 81.819C92.6512 81.8927 93.0494 81.8545 93.4112 81.7094C93.773 81.5644 94.0821 81.3189 94.2995 81.0041C94.5169 80.6892 94.6327 80.3192 94.6323 79.9407C94.6326 79.6895 94.5815 79.4407 94.482 79.2086C94.3826 78.9765 94.2367 78.7657 94.0528 78.5881C93.8688 78.4106 93.6504 78.2698 93.4101 78.174C93.1697 78.0781 92.9122 78.029 92.6521 78.0295Z" fill="#F7FCFF"/>
</svg>
