<svg width="162" height="92" viewBox="0 0 162 92" fill="none" xmlns="http://www.w3.org/2000/svg">
<g clip-path="url(#clip0_8_320)">
<path fill-rule="evenodd" clip-rule="evenodd" d="M151.199 0H10.8C4.8357 0 0 4.34579 0 9.6939V82.3061C0 87.6603 4.84785 92 10.8013 92H151.2C157.166 92 162.001 87.6542 162.001 82.3061V9.6939C162 4.33974 157.152 0 151.199 0Z" fill="#227FBB"/>
<path fill-rule="evenodd" clip-rule="evenodd" d="M151.749 45.5678C151.756 66.6746 132.886 83.789 109.601 83.7938C86.3163 83.7999 67.4379 66.6939 67.4325 45.5872V45.5678C67.4258 24.4611 86.2961 7.34547 109.579 7.33942C132.864 7.33458 151.743 24.4405 151.749 45.5485V45.5678Z" fill="#F2C500"/>
<path fill-rule="evenodd" clip-rule="evenodd" d="M52.7661 7.35031C29.6203 7.48347 10.881 24.5543 10.881 45.5666C10.881 66.6637 29.7675 83.7841 53.0401 83.7841C63.9617 83.7841 73.9179 80.0109 81.4091 73.8264H81.405H81.4131C82.949 72.5571 84.3793 71.1888 85.6926 69.7324H77.058C75.916 68.4826 74.8657 67.1676 73.9138 65.7957H88.8111C89.7205 64.4775 90.5401 63.1112 91.2654 61.7042H71.4528C70.7811 60.3968 70.1929 59.0562 69.6911 57.6888H93.0285C94.4701 53.7781 95.2025 49.6854 95.1979 45.5666C95.1979 42.7582 94.8631 40.02 94.2259 37.3835H68.4545C68.7744 36.0265 69.178 34.6852 69.6586 33.3682H93.0015C92.483 31.9743 91.8759 30.6082 91.183 29.2766H71.4514C72.1645 27.8949 72.9724 26.5543 73.8707 25.2625H88.7558C87.7663 23.8353 86.6731 22.4681 85.4833 21.1697H77.1836C78.4811 19.7873 79.8951 18.4963 81.4131 17.3081C73.9206 11.1247 63.963 7.35152 53.0388 7.35152L52.7661 7.35031Z" fill="#E94B35"/>
<path fill-rule="evenodd" clip-rule="evenodd" d="M68.1979 55.2969L68.7609 51.8384C68.4531 51.8384 68.0022 51.9582 67.6039 51.9582C66.0406 51.9582 65.8692 51.2053 65.9677 50.6484L67.23 43.5911H69.606L70.1784 39.7658H67.9401L68.395 37.3859H63.9063C63.8077 37.4755 61.2562 50.7671 61.2562 52.3843C61.2562 54.7812 62.7412 55.8476 64.8337 55.8307C66.4726 55.8186 67.7484 55.4058 68.1979 55.2969ZM69.6208 48.7031C69.6208 54.4531 73.8072 55.821 77.3752 55.821C80.6679 55.821 82.1164 55.1528 82.1164 55.1528L82.9075 51.2283C82.9075 51.2283 80.4019 52.2282 78.1407 52.2282C73.3212 52.2282 74.1649 48.9706 74.1649 48.9706H83.2869C83.2869 48.9706 83.8755 46.3341 83.8755 45.2592C83.8755 42.5779 82.404 39.3119 77.4751 39.3119C72.9621 39.3119 69.6208 43.7206 69.6208 48.7031ZM77.4913 42.9555C80.0253 42.9555 79.5582 45.5364 79.5582 45.7446H74.5753C74.5753 45.4783 75.0451 42.9555 77.4913 42.9555ZM105.918 55.2969L106.722 50.8615C106.722 50.8615 104.518 51.8626 103.008 51.8626C99.823 51.8626 98.5459 49.6582 98.5459 47.2904C98.5459 42.4859 101.286 39.8433 104.336 39.8433C106.623 39.8433 108.459 41.0078 108.459 41.0078L109.192 36.6983C109.192 36.6983 106.469 35.6996 104.136 35.6996C98.9536 35.6996 93.9127 39.7743 93.9127 47.4272C93.9127 52.503 96.6344 55.8549 101.991 55.8549C103.506 55.8549 105.918 55.2969 105.918 55.2969ZM43.5105 39.3748C40.4325 39.3748 38.0727 40.2706 38.0727 40.2706L37.422 43.7775C37.422 43.7775 39.3687 43.0596 42.313 43.0596C43.9843 43.0596 45.2074 43.2291 45.2074 44.4614C45.2074 45.2095 45.0576 45.4855 45.0576 45.4855C45.0576 45.4855 43.7386 45.3851 43.1271 45.3851C39.2458 45.3851 35.1675 46.8873 35.1675 51.4159C35.1675 54.9833 37.8432 55.8016 39.501 55.8016C42.6681 55.8016 44.0343 53.9386 44.1058 53.9338L43.9573 55.4881H47.9115L49.6746 44.2823C49.6746 39.5285 45.0994 39.3748 43.5105 39.3748ZM44.4717 48.4998C44.5581 49.1837 43.9992 52.3928 41.2965 52.3928C39.9019 52.3928 39.5388 51.4268 39.5388 50.8554C39.5388 49.7418 40.207 48.4053 43.4956 48.4053C44.2611 48.4053 44.3434 48.4804 44.4717 48.4998ZM53.8758 55.7205C54.8869 55.7205 60.6663 55.953 60.6663 50.5468C60.6663 45.4916 55.3162 46.4903 55.3162 44.459C55.3162 43.4482 56.1883 43.1299 57.7827 43.1299C58.4145 43.1299 60.8499 43.3114 60.8499 43.3114L61.4169 39.7198C61.4169 39.7198 59.8401 39.4002 57.2737 39.4002C53.9527 39.4002 50.5831 40.6011 50.5831 44.7132C50.5831 49.3713 56.2032 48.9041 56.2032 50.8663C56.2032 52.1761 54.6331 52.2826 53.4222 52.2826C51.3297 52.2826 49.4437 51.6314 49.437 51.6629L48.8389 55.2194C48.9469 55.2496 50.1106 55.7205 53.8758 55.7205ZM143.099 36.1512L142.131 41.5973C142.131 41.5973 140.44 39.4813 137.797 39.4813C133.684 39.4813 130.255 43.9772 130.255 49.1413C130.255 52.4763 132.084 55.7423 135.821 55.7423C138.51 55.7423 140 54.044 140 54.044L139.803 55.4954H144.169L147.598 36.1439L143.099 36.1512ZM141.014 46.7699C141.014 48.9198 139.84 51.79 137.407 51.79C135.791 51.79 135.035 50.5613 135.035 48.6305C135.035 45.4771 136.597 43.395 138.569 43.395C140.185 43.395 141.014 44.4009 141.014 46.7699ZM19.2051 55.5111L21.9375 40.9025L22.3398 55.5111H25.4326L31.2012 40.9025L28.6456 55.5111H33.241L36.7794 36.1354H29.6743L25.2477 48.024L25.0182 36.1354H18.468L14.877 55.5111H19.2051ZM88.3656 55.539C89.671 48.8024 89.914 43.3332 93.0312 44.3343C93.5779 41.7281 94.1044 40.7197 94.6998 39.6157C94.6998 39.6157 94.4203 39.5624 93.8344 39.5624C91.8229 39.5624 90.3352 42.0525 90.3352 42.0525L90.7348 39.7658H86.5552L83.7553 55.539H88.3656ZM116.274 39.3748C113.196 39.3748 110.836 40.2706 110.836 40.2706L110.186 43.7775C110.186 43.7775 112.134 43.0596 115.077 43.0596C116.749 43.0596 117.971 43.2291 117.971 44.4614C117.971 45.2095 117.823 45.4855 117.823 45.4855C117.823 45.4855 116.504 45.3851 115.892 45.3851C112.011 45.3851 107.932 46.8873 107.932 51.4159C107.932 54.9833 110.608 55.8016 112.266 55.8016C115.433 55.8016 116.798 53.9386 116.869 53.9338L116.724 55.4881H120.675L122.438 44.2823C122.438 39.5285 117.863 39.3748 116.274 39.3748ZM117.238 48.4998C117.323 49.1837 116.764 52.3928 114.06 52.3928C112.666 52.3928 112.305 51.4268 112.305 50.8554C112.305 49.7418 112.972 48.4053 116.261 48.4053C117.026 48.4053 117.107 48.4804 117.238 48.4998ZM126.051 55.539C127.358 48.8024 127.601 43.3332 130.718 44.3343C131.265 41.7281 131.791 40.7197 132.386 39.6157C132.386 39.6157 132.107 39.5624 131.521 39.5624C129.51 39.5624 128.022 42.0525 128.022 42.0525L128.421 39.7658H124.242L121.442 55.539H126.051Z" fill="white"/>
</g>
<defs>
<clipPath id="clip0_8_320">
<rect width="162" height="92" fill="white"/>
</clipPath>
</defs>
</svg>
