<svg width="20" height="20" viewBox="0 0 20 20" fill="none" xmlns="http://www.w3.org/2000/svg">
<path d="M12.825 4.34166L14 6.69166C14.1583 7.01666 14.5833 7.325 14.9417 7.39166L17.0667 7.74166C18.425 7.96666 18.7417 8.95 17.7667 9.93333L16.1083 11.5917C15.8333 11.8667 15.675 12.4083 15.7667 12.8L16.2417 14.85C16.6167 16.4667 15.75 17.1 14.325 16.25L12.3333 15.0667C11.975 14.85 11.375 14.85 11.0167 15.0667L9.025 16.25C7.6 17.0917 6.73334 16.4667 7.10834 14.85L7.58334 12.8C7.65834 12.4 7.5 11.8583 7.225 11.5833L5.56667 9.925C4.59167 8.95 4.90834 7.96666 6.26667 7.73333L8.39167 7.38333C8.75 7.325 9.175 7.00833 9.33334 6.68333L10.5083 4.33333C11.15 3.06666 12.1833 3.06666 12.825 4.34166Z" fill="#FFBF00"/>
<path d="M6.66666 4.79166H1.66666C1.32499 4.79166 1.04166 4.50832 1.04166 4.16666C1.04166 3.82499 1.32499 3.54166 1.66666 3.54166H6.66666C7.00832 3.54166 7.29166 3.82499 7.29166 4.16666C7.29166 4.50832 7.00832 4.79166 6.66666 4.79166Z" fill="#FFBF00"/>
<path d="M4.16666 16.4583H1.66666C1.32499 16.4583 1.04166 16.175 1.04166 15.8333C1.04166 15.4917 1.32499 15.2083 1.66666 15.2083H4.16666C4.50832 15.2083 4.79166 15.4917 4.79166 15.8333C4.79166 16.175 4.50832 16.4583 4.16666 16.4583Z" fill="#FFBF00"/>
<path d="M2.49999 10.625H1.66666C1.32499 10.625 1.04166 10.3417 1.04166 10C1.04166 9.65833 1.32499 9.375 1.66666 9.375H2.49999C2.84166 9.375 3.12499 9.65833 3.12499 10C3.12499 10.3417 2.84166 10.625 2.49999 10.625Z" fill="#FFBF00"/>
</svg>
