<svg width="114" height="114" viewBox="0 0 114 114" fill="none" xmlns="http://www.w3.org/2000/svg">
<path d="M109.114 57C109.114 58.7914 109.033 60.5014 108.87 62.2114C106.427 86.8843 86.7215 106.509 61.9672 108.87C60.3386 109.033 58.71 109.114 57 109.114C28.2557 109.114 4.88574 85.7443 4.88574 57C4.88574 28.2557 28.2557 4.88571 57 4.88571C85.8257 4.88571 109.114 28.2557 109.114 57Z" fill="#23A8D5"/>
<path opacity="0.3" d="M108.87 62.2114C106.427 86.8843 86.7214 106.509 61.9672 108.87L25.2429 72.2271C25.1614 72.1457 25.08 72.1457 25.08 72.0643L24.9172 71.9014C24.8357 71.82 24.8357 71.7386 24.7543 71.6571C24.6729 71.5757 24.6729 71.4943 24.5914 71.3314C24.5914 71.25 24.51 71.0871 24.51 71.0057V60.5828C24.8357 60.5828 25.1614 60.5014 25.4872 60.42C25.5686 60.42 25.65 60.3386 25.8129 60.3386C25.8943 60.2571 26.0572 60.2571 26.1386 60.1757C26.22 60.0943 26.3014 60.0943 26.3829 60.0128C26.4643 59.9314 26.5457 59.9314 26.6272 59.85C26.8714 59.6871 27.1157 59.4428 27.2786 59.1171C27.36 59.0357 27.36 58.9543 27.4414 58.8728C27.5229 58.71 27.6857 58.4657 27.6857 58.3028C27.6857 58.2214 27.7672 58.0586 27.7672 57.9771C27.8486 57.7328 27.8486 57.57 27.8486 57.3257L24.4286 53.8243V43.8086C24.4286 42.6686 25.3243 41.7728 26.4643 41.7728H63.3515L77.6829 37.4571C77.8457 37.3757 78.0086 37.3757 78.1714 37.3757H78.4157C78.4972 37.3757 78.4972 37.3757 78.5786 37.4571C78.66 37.4571 78.7415 37.4571 78.8229 37.5386C78.9043 37.5386 78.9857 37.62 78.9857 37.62C79.0672 37.7014 79.1486 37.7014 79.23 37.7828L79.3115 37.8643L79.3929 37.9457L83.3015 41.8543H87.9429C88.0243 41.8543 88.1057 41.8543 88.1872 41.9357C88.2686 41.9357 88.35 42.0171 88.4314 42.0171C88.5129 42.0171 88.5943 42.0986 88.5943 42.0986C88.7572 42.18 88.92 42.3428 89.0829 42.5871L89.1643 42.6686L108.87 62.2114Z" fill="black"/>
<path d="M79.8814 38.5157L86.3143 59.6871C86.5586 60.5829 86.07 61.56 85.1743 61.8043L36.3172 76.6243C35.4214 76.8686 34.4443 76.38 34.2 75.4843L31.7572 67.7486C33.3043 67.26 34.1186 65.6314 33.63 64.0843C33.1414 62.5371 31.5129 61.6414 29.9657 62.0486L27.6043 54.3129C27.36 53.4171 27.8486 52.44 28.7443 52.1957L77.6014 37.3757C78.66 37.1314 79.5557 37.62 79.8814 38.5157Z" fill="#DFE1E2"/>
<path d="M70.3543 41.7729V72.3086H26.4643C25.3243 72.3086 24.4286 71.4129 24.4286 70.2729V60.5829C26.3829 60.5014 27.8486 58.9543 27.8486 57C27.8486 55.0457 26.3014 53.4986 24.4286 53.4171V43.8086C24.4286 42.6686 25.3243 41.7729 26.4643 41.7729H70.3543Z" fill="#F3F3F3"/>
<path d="M70.3543 66.2829C69.3772 66.2829 68.5629 67.0972 68.5629 68.0743C68.5629 69.0514 69.3772 69.8657 70.3543 69.8657C71.3314 69.8657 72.1457 69.0514 72.1457 68.0743C72.1457 67.0972 71.3314 66.2829 70.3543 66.2829Z" fill="#E45647"/>
<path d="M70.3543 66.2829V69.8657C71.3315 69.8657 72.1457 69.0514 72.1457 68.0743C72.1457 67.0972 71.3315 66.2829 70.3543 66.2829Z" fill="#F3F3F3"/>
<path d="M32.5714 56.5929H63.84V58.14H32.5714V56.5929ZM32.5714 61.4786H48.2057V63.0257H32.5714V61.4786ZM32.5714 66.3643H48.2057V67.9114H32.5714V66.3643Z" fill="#939393"/>
<path d="M32.9786 47.2286H34.77V52.3586H35.9914V47.2286H37.7829V46.2514H32.9786V47.2286ZM38.5971 46.2514H39.8186V52.3586H38.5971V46.2514ZM44.3786 51.0557C44.1343 51.3 43.89 51.3814 43.5643 51.3814C43.1571 51.3814 42.75 51.2186 42.5057 50.8928C42.2614 50.5671 42.0986 49.9971 42.0986 49.2643C42.0986 48.5314 42.2614 48.0428 42.5057 47.7171C42.75 47.3914 43.1571 47.2286 43.6457 47.2286C43.9714 47.2286 44.2157 47.31 44.46 47.4728C44.7043 47.6357 44.8671 47.88 44.9486 48.2057L46.17 47.88C46.0071 47.3914 45.8443 46.9843 45.5186 46.74C45.03 46.3329 44.46 46.0886 43.7271 46.0886C42.8314 46.0886 42.18 46.3328 41.6914 46.9028C41.2029 47.4728 40.8771 48.2871 40.8771 49.2643C40.8771 50.2414 41.1214 50.9743 41.6914 51.5443C42.18 52.1143 42.9129 52.3586 43.7271 52.3586C44.3786 52.3586 44.9486 52.1957 45.3557 51.87C45.7629 51.5443 46.0886 51.0557 46.2514 50.4043L45.03 49.9971C44.7857 50.5671 44.6229 50.8928 44.3786 51.0557ZM52.6029 46.2514H50.8929L48.45 48.9386V46.2514H47.1472V52.3586H48.45V50.4857L49.4271 49.5086L51.1371 52.3586H52.6843L50.2414 48.6128L52.6029 46.2514ZM54.5571 49.6714H57.6514V48.6128H54.5571V47.2286H57.8957V46.2514H53.3357V52.3586H57.9771V51.3H54.5571V49.6714ZM58.6286 46.2514V47.2286H60.42V52.3586H61.6414V47.2286H63.5143V46.2514H58.6286Z" fill="#072C49"/>
<path d="M70.3543 42.0986V72.6343H26.4643C25.3243 72.6343 24.4286 71.7386 24.4286 70.5986V60.9086C26.3829 60.8271 27.8486 59.28 27.8486 57.3257C27.8486 55.3714 26.3014 53.8243 24.4286 53.7429V44.1343C24.4286 42.9943 25.3243 42.0986 26.4643 42.0986H70.3543Z" fill="#F7F8F9"/>
<path d="M70.3543 66.2829C69.3772 66.2829 68.5629 67.0972 68.5629 68.0743C68.5629 69.0514 69.3772 69.8657 70.3543 69.8657C71.3314 69.8657 72.1457 69.0514 72.1457 68.0743C72.1457 67.0972 71.3314 66.2829 70.3543 66.2829Z" fill="#E45647"/>
<path d="M32.5714 56.5929H63.84V58.14H32.5714V56.5929ZM32.5714 61.4786H48.2057V63.0257H32.5714V61.4786ZM32.5714 66.3643H48.2057V67.9114H32.5714V66.3643Z" fill="#939393"/>
<path d="M32.9786 47.2286H34.77V52.3586H35.9914V47.2286H37.7829V46.2514H32.9786V47.2286ZM38.5971 46.2514H39.8186V52.3586H38.5971V46.2514ZM44.3786 51.0557C44.1343 51.3 43.89 51.3814 43.5643 51.3814C43.1571 51.3814 42.75 51.2186 42.5057 50.8928C42.2614 50.5671 42.0986 49.9971 42.0986 49.2643C42.0986 48.5314 42.2614 48.0428 42.5057 47.7171C42.75 47.3914 43.1571 47.2286 43.6457 47.2286C43.9714 47.2286 44.2157 47.31 44.46 47.4728C44.7043 47.6357 44.8671 47.88 44.9486 48.2057L46.17 47.88C46.0071 47.3914 45.8443 46.9843 45.5186 46.74C45.03 46.3329 44.46 46.0886 43.7271 46.0886C42.8314 46.0886 42.18 46.3328 41.6914 46.9028C41.2029 47.4728 40.8771 48.2871 40.8771 49.2643C40.8771 50.2414 41.1214 50.9743 41.6914 51.5443C42.18 52.1143 42.9129 52.3586 43.7271 52.3586C44.3786 52.3586 44.9486 52.1957 45.3557 51.87C45.7629 51.5443 46.0886 51.0557 46.2514 50.4043L45.03 49.9971C44.7857 50.5671 44.6229 50.8928 44.3786 51.0557ZM52.6029 46.2514H50.8929L48.45 48.9386V46.2514H47.1472V52.3586H48.45V50.4857L49.4271 49.5086L51.1371 52.3586H52.6843L50.2414 48.6128L52.6029 46.2514ZM54.5571 49.6714H57.6514V48.6128H54.5571V47.2286H57.8957V46.2514H53.3357V52.3586H57.9771V51.3H54.5571V49.6714ZM58.6286 46.2514V47.2286H60.42V52.3586H61.6414V47.2286H63.5143V46.2514H58.6286Z" fill="#072C49"/>
<path d="M70.3543 41.7729V72.3086H87.5357C88.6757 72.3086 89.5715 71.4129 89.5715 70.2729V43.8086C89.5715 42.6686 88.6757 41.7729 87.5357 41.7729H70.3543Z" fill="#E45647"/>
<path d="M74.9957 46.4957H86.8029V48.5314H74.9957V46.4957ZM74.9957 50.8114H86.8029V51.87H74.9957V50.8114ZM74.9957 54.0686H86.8029V56.1043H74.9957V54.0686ZM74.9957 57.8957H86.8029V59.9314H74.9957V57.8957ZM74.9957 62.2114H86.8029V63.27H74.9957V62.2114ZM74.9957 65.4686H86.8029V67.5043H74.9957V65.4686Z" fill="#072C49"/>
<path d="M74.9957 46.4957H86.8029V48.5314H74.9957V46.4957ZM74.9957 50.8114H86.8029V51.87H74.9957V50.8114ZM74.9957 54.0686H86.8029V56.1043H74.9957V54.0686ZM74.9957 57.8957H86.8029V59.9314H74.9957V57.8957ZM74.9957 62.2114H86.8029V63.27H74.9957V62.2114ZM74.9957 65.4686H86.8029V67.5043H74.9957V65.4686Z" fill="#072C49"/>
<path d="M70.3543 60.7457C69.3772 60.7457 68.5629 61.56 68.5629 62.5372C68.5629 63.5143 69.3772 64.3286 70.3543 64.3286C71.3314 64.3286 72.1457 63.5143 72.1457 62.5372C72.1457 61.56 71.3314 60.7457 70.3543 60.7457Z" fill="#E45647"/>
<path d="M70.3543 60.7457V64.3286C71.3315 64.3286 72.1457 63.5143 72.1457 62.5372C72.1457 61.56 71.3315 60.7457 70.3543 60.7457Z" fill="#F3F3F3"/>
<path d="M70.3543 55.2086C69.3772 55.2086 68.5629 56.0228 68.5629 57C68.5629 57.9771 69.3772 58.7914 70.3543 58.7914C71.3314 58.7914 72.1457 57.9771 72.1457 57C72.1457 56.0228 71.3314 55.2086 70.3543 55.2086Z" fill="#E45647"/>
<path d="M70.3543 55.2086V58.7914C71.3315 58.7914 72.1457 57.9771 72.1457 57C72.1457 56.0228 71.3315 55.2086 70.3543 55.2086Z" fill="#F3F3F3"/>
<path d="M70.3543 49.6714C69.3772 49.6714 68.5629 50.4857 68.5629 51.4628C68.5629 52.44 69.3772 53.2543 70.3543 53.2543C71.3314 53.2543 72.1457 52.44 72.1457 51.4628C72.1457 50.4857 71.3314 49.6714 70.3543 49.6714Z" fill="#E45647"/>
<path d="M70.3543 49.6714V53.2543C71.3315 53.2543 72.1457 52.44 72.1457 51.4628C72.1457 50.4857 71.3315 49.6714 70.3543 49.6714Z" fill="#F3F3F3"/>
<path d="M70.3543 44.1343C69.3772 44.1343 68.5629 44.9486 68.5629 45.9257C68.5629 46.9028 69.3772 47.7171 70.3543 47.7171C71.3314 47.7171 72.1457 46.9028 72.1457 45.9257C72.1457 44.9486 71.3314 44.1343 70.3543 44.1343Z" fill="#E45647"/>
<path d="M70.3543 44.1343V47.7171C71.3315 47.7171 72.1457 46.9028 72.1457 45.9257C72.1457 44.9486 71.3315 44.1343 70.3543 44.1343ZM70.3543 66.2828V69.8657C71.3315 69.8657 72.1457 69.0514 72.1457 68.0743C72.1457 67.0971 71.3315 66.2828 70.3543 66.2828Z" fill="#F3F3F3"/>
<path d="M70.3543 60.7457C69.3772 60.7457 68.5629 61.56 68.5629 62.5372C68.5629 63.5143 69.3772 64.3286 70.3543 64.3286C71.3314 64.3286 72.1457 63.5143 72.1457 62.5372C72.1457 61.56 71.3314 60.7457 70.3543 60.7457Z" fill="#E45647"/>
<path d="M70.3543 60.7457V64.3286C71.3315 64.3286 72.1457 63.5143 72.1457 62.5372C72.1457 61.56 71.3315 60.7457 70.3543 60.7457Z" fill="#F3F3F3"/>
<path d="M70.3543 55.2086C69.3772 55.2086 68.5629 56.0228 68.5629 57C68.5629 57.9771 69.3772 58.7914 70.3543 58.7914C71.3314 58.7914 72.1457 57.9771 72.1457 57C72.1457 56.0228 71.3314 55.2086 70.3543 55.2086Z" fill="#E45647"/>
<path d="M70.3543 55.2086V58.7914C71.3315 58.7914 72.1457 57.9771 72.1457 57C72.1457 56.0228 71.3315 55.2086 70.3543 55.2086Z" fill="#F3F3F3"/>
<path d="M70.3543 49.6714C69.3772 49.6714 68.5629 50.4857 68.5629 51.4628C68.5629 52.44 69.3772 53.2543 70.3543 53.2543C71.3314 53.2543 72.1457 52.44 72.1457 51.4628C72.1457 50.4857 71.3314 49.6714 70.3543 49.6714Z" fill="#E45647"/>
<path d="M70.3543 49.6714V53.2543C71.3315 53.2543 72.1457 52.44 72.1457 51.4628C72.1457 50.4857 71.3315 49.6714 70.3543 49.6714Z" fill="#F3F3F3"/>
<path d="M70.3543 44.1343C69.3772 44.1343 68.5629 44.9486 68.5629 45.9257C68.5629 46.9028 69.3772 47.7171 70.3543 47.7171C71.3314 47.7171 72.1457 46.9028 72.1457 45.9257C72.1457 44.9486 71.3314 44.1343 70.3543 44.1343Z" fill="#E45647"/>
<path d="M70.3543 44.1343V47.7171C71.3315 47.7171 72.1457 46.9028 72.1457 45.9257C72.1457 44.9486 71.3315 44.1343 70.3543 44.1343Z" fill="#F3F3F3"/>
</svg>
